<?xml version="1.0" encoding="utf-8"?>
<!-- Generator: Adobe Illustrator 16.0.0, SVG Export Plug-In . SVG Version: 6.00 Build 0)  -->
<!DOCTYPE svg PUBLIC "-//W3C//DTD SVG 1.1//EN" "http://www.w3.org/Graphics/SVG/1.1/DTD/svg11.dtd">
<svg version="1.1" id="圖層_1" xmlns="http://www.w3.org/2000/svg" xmlns:xlink="http://www.w3.org/1999/xlink" x="0px" y="0px"
	 width="20px" height="20px" viewBox="287.639 271.541 20 20" enable-background="new 287.639 271.541 20 20" xml:space="preserve">
<g>
	<path fill="#FFFFFF" d="M307.616,279.794c-0.031-0.816-0.209-1.597-0.535-2.342c-0.682-1.553-1.8-2.724-3.219-3.619
		c-1.894-1.198-3.984-1.722-6.411-1.734c-0.218,0.012-0.634,0.03-1.047,0.065c-1.066,0.092-2.099,0.334-3.095,0.72
		c-1.644,0.637-3.068,1.585-4.164,2.986c-0.853,1.09-1.374,2.322-1.471,3.709c-0.101,1.445,0.256,2.783,1.029,4.008
		c0.898,1.42,2.151,2.442,3.64,3.19c1.258,0.632,2.597,0.988,3.993,1.147c0.27,0.03,0.46,0.247,0.454,0.518
		c-0.004,0.157-0.026,0.313-0.043,0.471c-0.052,0.479-0.102,0.958-0.16,1.438c-0.059,0.482,0.432,0.773,0.855,0.564
		c1.5-0.743,2.96-1.552,4.336-2.508c0.966-0.672,1.878-1.412,2.719-2.237c0.718-0.703,1.317-1.497,1.89-2.317
		C307.239,282.631,307.676,281.29,307.616,279.794z M294.088,282.462c-0.098,0.131-0.234,0.197-0.395,0.198
		c-0.683,0.002-1.367,0.004-2.049-0.001c-0.285-0.003-0.49-0.221-0.491-0.508c-0.002-0.645,0-1.29,0-1.934
		c0-0.64-0.002-1.279,0.001-1.919c0-0.257,0.182-0.45,0.452-0.49c0.211-0.032,0.451,0.124,0.518,0.345
		c0.02,0.067,0.021,0.14,0.021,0.212c0.001,1.032,0.001,2.063,0.001,3.094c0,0.201,0,0.201,0.207,0.201
		c0.444,0.002,0.888,0,1.332,0.002c0.211,0,0.373,0.095,0.458,0.286C294.22,282.122,294.207,282.303,294.088,282.462z
		 M295.697,280.241c0,0.654,0,1.309,0,1.964c0,0.304-0.152,0.457-0.46,0.455c-0.094-0.001-0.192-0.003-0.282-0.028
		c-0.146-0.04-0.233-0.147-0.25-0.299c-0.011-0.1-0.008-0.201-0.008-0.301c-0.001-1.238-0.001-2.476-0.001-3.713
		c0-0.449,0.386-0.675,0.791-0.463c0.151,0.08,0.21,0.212,0.21,0.378C295.696,278.902,295.697,279.573,295.697,280.241z
		 M300.429,282.111c0,0.255-0.131,0.45-0.344,0.521c-0.219,0.072-0.409,0.005-0.574-0.207c-0.635-0.82-1.268-1.639-1.902-2.459
		c-0.031-0.041-0.063-0.078-0.124-0.154c-0.004,0.093-0.009,0.143-0.009,0.191c0,0.722,0.001,1.443,0,2.165
		c-0.001,0.252-0.182,0.45-0.437,0.489c-0.225,0.035-0.461-0.113-0.533-0.342c-0.018-0.057-0.022-0.121-0.022-0.184
		c-0.001-1.26-0.001-2.522,0-3.783c0-0.251,0.129-0.447,0.334-0.514c0.223-0.074,0.425-0.002,0.588,0.21
		c0.632,0.821,1.263,1.644,1.895,2.466c0.029,0.039,0.054,0.078,0.086,0.116c0.014-0.005,0.029-0.012,0.029-0.017v-0.167
		c0-0.707,0.009-1.414,0.012-2.122c0.001-0.267,0.151-0.442,0.408-0.501c0.291-0.066,0.588,0.161,0.59,0.464
		c0.004,0.43,0.004,0.861,0.004,1.291C300.429,280.419,300.429,281.265,300.429,282.111z M302.209,278.972
		c0.012,0.19,0.003,0.382,0.003,0.574c0.002,0.192,0.002,0.193,0.2,0.193c0.446,0,0.89-0.002,1.335,0.001
		c0.338,0.003,0.548,0.25,0.5,0.584c-0.033,0.24-0.246,0.412-0.524,0.414c-0.45,0.002-0.898,0.007-1.348-0.003
		c-0.142-0.002-0.171,0.047-0.163,0.173c0.006,0.191,0.009,0.382-0.003,0.574c-0.007,0.136,0.036,0.183,0.177,0.181
		c0.448-0.008,0.897-0.006,1.348-0.002c0.347,0.004,0.555,0.24,0.514,0.574c-0.026,0.238-0.229,0.422-0.481,0.424
		c-0.686,0.004-1.369,0.005-2.052,0c-0.286-0.002-0.493-0.22-0.493-0.506c-0.003-0.641,0-1.281,0-1.922
		c-0.003-0.625-0.003-1.251,0-1.878c0-0.337,0.203-0.548,0.54-0.549c0.656-0.002,1.311-0.002,1.964,0
		c0.257,0.001,0.469,0.159,0.516,0.375c0.055,0.239-0.037,0.469-0.248,0.569c-0.084,0.04-0.183,0.053-0.276,0.053
		c-0.445,0.006-0.889,0.007-1.335,0C302.254,278.8,302.202,278.836,302.209,278.972z"/>
</g>
</svg>
